<?xml version="1.0" encoding="UTF-8" standalone="no"?>
<svg
   xmlns:dc="http://purl.org/dc/elements/1.1/"
   xmlns:cc="http://creativecommons.org/ns#"
   xmlns:rdf="http://www.w3.org/1999/02/22-rdf-syntax-ns#"
   xmlns:svg="http://www.w3.org/2000/svg"
   xmlns="http://www.w3.org/2000/svg"
   xmlns:sodipodi="http://sodipodi.sourceforge.net/DTD/sodipodi-0.dtd"
   xmlns:inkscape="http://www.inkscape.org/namespaces/inkscape"
   viewBox="0 0 224.99952 180"
   width="2.5in"
   height="2in"
   id="svg5301"
   version="1.1"
   inkscape:version="0.91 r13725"
   sodipodi:docname="Toolforge anvil with text.svg"
   inkscape:export-xdpi="90"
   inkscape:export-ydpi="90">
  <metadata
     id="metadata13">
    <rdf:RDF>
      <cc:Work
         rdf:about="">
        <dc:format>image/svg+xml</dc:format>
        <dc:type
           rdf:resource="http://purl.org/dc/dcmitype/StillImage" />
        <dc:title></dc:title>
      </cc:Work>
    </rdf:RDF>
  </metadata>
  <defs
     id="defs5307" />
  <sodipodi:namedview
     pagecolor="#ffffff"
     bordercolor="#666666"
     borderopacity="1"
     objecttolerance="10"
     gridtolerance="10"
     guidetolerance="10"
     inkscape:pageopacity="0"
     inkscape:pageshadow="2"
     inkscape:window-width="1200"
     inkscape:window-height="904"
     id="namedview5305"
     showgrid="false"
     showborder="false"
     inkscape:zoom="3.2301837"
     inkscape:cx="109.32332"
     inkscape:cy="86.370699"
     inkscape:window-x="10"
     inkscape:window-y="0"
     inkscape:window-maximized="0"
     inkscape:current-layer="svg5301"
     fit-margin-top="0"
     fit-margin-left="0"
     fit-margin-right="0"
     fit-margin-bottom="0"
     inkscape:document-units="in"
     units="in" />
  <g
     id="g4983"
     transform="translate(22.499912,-18.662551)">
    <g
       transform="matrix(1.8464277,0,0,1.8464277,22.399504,23.54426)"
       id="g4229">
      <path
         inkscape:connector-curvature="0"
         style="display:inline;opacity:1;fill:#339966;fill-opacity:1;fill-rule:nonzero;stroke:none;stroke-width:1;stroke-linecap:round;stroke-linejoin:round;stroke-miterlimit:4;stroke-dasharray:none;stroke-opacity:1"
         d="m 7.9542322,27.461837 0,4.965214 -20.0697002,0 c 0,0 -0.572642,8.573176 5.1603858,12.633585 6.2910507,4.457366 14.9093144,6.317762 14.9093144,6.317762 l 0,3.15986 11.2244278,0 c 0.73105,0.569055 1.282287,1.415362 1.282287,2.687536 0,2.235019 -1.919153,3.081826 -3.374547,3.403827 l -9.1341264,0 0,11.733835 63.6421864,0 0,-11.733835 -10.607677,0 c 0,0 -1.434449,-11.958486 10.605728,-18.726896 4.960399,-2.790334 13.761682,-4.061559 13.761682,-4.061559 l 0,-5.414115 -13.759733,0 0,-4.965214 -63.6402278,0 z"
         id="path4899" />
      <path
         inkscape:connector-curvature="0"
         style="display:inline;opacity:1;fill:#006699;fill-opacity:1;fill-rule:nonzero;stroke:none;stroke-width:1;stroke-linecap:round;stroke-linejoin:round;stroke-miterlimit:4;stroke-dasharray:none;stroke-opacity:1"
         d="M 38.020715,-0.38552593 22.47904,2.1029323 24.022861,13.493262 28.187866,24.444455 43.731489,21.957945 43.032766,13.885563 73.216355,10.190924 70.563944,0.37954933 41.248876,6.8866362 38.020715,-0.38552593 Z"
         id="path4891" />
      <path
         inkscape:connector-curvature="0"
         id="path4889"
         style="display:inline;opacity:1;fill:#990000;fill-opacity:1;fill-rule:nonzero;stroke:none;stroke-width:1;stroke-linecap:round;stroke-linejoin:round;stroke-miterlimit:4;stroke-dasharray:none;stroke-opacity:1"
         d="m -2.5929481,-0.67828749 -3.0622796,1.76827099 0.4274356,0.4313329 a 54.096587,54.226008 0 0 1 0.017588,-0.023383 l 4.60609044,4.4206725 4.36017556,0 -5.0315675,-6.59686301 -1.317422,0 z M 13.817238,1.2129459 3.7560414,1.5642558 l 6.9306156,9.6786592 -2.9061311,0.175654 12.2959251,12.66871 3.800034,0 -7.041866,-10.777476 3.044712,0.06835 L 13.817238,1.2129859 Z M 0.1785186,8.6041633 -6.0807048,8.7778697 15.605035,23.558366 0.1785186,8.6041633 Z m 0.22249158,11.3044517 -2.26400798,4.178664 10.984359,0 -8.72035102,-4.178664 z" />
    </g>
    <g
       transform="translate(-22.500148,-26.1293)"
       style="font-style:normal;font-variant:normal;font-weight:bold;font-stretch:normal;font-size:22.5px;line-height:125%;font-family:sans-serif;-inkscape-font-specification:'sans-serif, Bold';text-align:start;letter-spacing:0px;word-spacing:0px;writing-mode:lr-tb;text-anchor:start;fill:#000000;fill-opacity:1;stroke:none;stroke-width:1px;stroke-linecap:butt;stroke-linejoin:miter;stroke-opacity:1"
       id="text4143">
      <path
         d="m 3.1766797,196.17255 21.0350003,0 0,5.285 -7.35,0 0,19.25 -6.405,0 0,-19.25 -7.2800003,0 0,-5.285 z"
         style="font-style:normal;font-variant:normal;font-weight:bold;font-stretch:normal;font-size:35px;line-height:125%;font-family:Montserrat;-inkscape-font-specification:'Montserrat, Bold';text-align:start;writing-mode:lr-tb;text-anchor:start"
         id="path4182"
         inkscape:connector-curvature="0" />
      <path
         d="m 37.304414,195.78755 q 3.745,0 6.755,1.645 3.045,1.645 4.76,4.515 1.75,2.87 1.75,6.44 0,3.605 -1.75,6.51 -1.715,2.905 -4.76,4.585 -3.01,1.68 -6.755,1.68 -3.745,0 -6.79,-1.645 -3.01,-1.68 -4.76,-4.585 -1.715,-2.94 -1.715,-6.545 0,-3.57 1.715,-6.44 1.75,-2.87 4.76,-4.515 3.045,-1.645 6.79,-1.645 z m 0.07,5.425 q -1.82,0 -3.395,0.945 -1.54,0.945 -2.45,2.625 -0.91,1.645 -0.91,3.64 0,2.03 0.91,3.71 0.945,1.645 2.485,2.625 1.54,0.945 3.36,0.945 1.82,0 3.325,-0.945 1.54,-0.98 2.415,-2.625 0.875,-1.68 0.875,-3.71 0,-1.995 -0.875,-3.64 -0.875,-1.68 -2.415,-2.625 -1.505,-0.945 -3.325,-0.945 z"
         style="font-style:normal;font-variant:normal;font-weight:bold;font-stretch:normal;font-size:35px;line-height:125%;font-family:Montserrat;-inkscape-font-specification:'Montserrat, Bold';text-align:start;writing-mode:lr-tb;text-anchor:start"
         id="path4184"
         inkscape:connector-curvature="0" />
      <path
         d="m 65.05832,195.78755 q 3.745,0 6.755,1.645 3.045,1.645 4.76,4.515 1.75,2.87 1.75,6.44 0,3.605 -1.75,6.51 -1.715,2.905 -4.76,4.585 -3.01,1.68 -6.755,1.68 -3.745,0 -6.79,-1.645 -3.01,-1.68 -4.76,-4.585 -1.715,-2.94 -1.715,-6.545 0,-3.57 1.715,-6.44 1.75,-2.87 4.76,-4.515 3.045,-1.645 6.79,-1.645 z m 0.07,5.425 q -1.82,0 -3.395,0.945 -1.54,0.945 -2.45,2.625 -0.91,1.645 -0.91,3.64 0,2.03 0.91,3.71 0.945,1.645 2.485,2.625 1.54,0.945 3.36,0.945 1.82,0 3.325,-0.945 1.54,-0.98 2.415,-2.625 0.875,-1.68 0.875,-3.71 0,-1.995 -0.875,-3.64 -0.875,-1.68 -2.415,-2.625 -1.505,-0.945 -3.325,-0.945 z"
         style="font-style:normal;font-variant:normal;font-weight:bold;font-stretch:normal;font-size:35px;line-height:125%;font-family:Montserrat;-inkscape-font-specification:'Montserrat, Bold';text-align:start;writing-mode:lr-tb;text-anchor:start"
         id="path4186"
         inkscape:connector-curvature="0" />
      <path
         d="m 81.532383,196.17255 6.405,0 0,19.075 10.395,0 0,5.46 -16.8,0 0,-24.535 z"
         style="font-style:normal;font-variant:normal;font-weight:bold;font-stretch:normal;font-size:35px;line-height:125%;font-family:Montserrat;-inkscape-font-specification:'Montserrat, Bold';text-align:start;writing-mode:lr-tb;text-anchor:start"
         id="path4188"
         inkscape:connector-curvature="0" />
      <path
         d="m 101.28824,196.17255 18.34,0 -0.035,5.11 -11.9,0 0,5.46 10.99,0 0,5.11 -10.99,0 0,8.855 -6.405,0 0,-24.535 z"
         style="font-style:normal;font-variant:normal;font-weight:bold;font-stretch:normal;font-size:35px;line-height:125%;font-family:Montserrat;-inkscape-font-specification:'Montserrat, Bold';text-align:start;writing-mode:lr-tb;text-anchor:start"
         id="path4190"
         inkscape:connector-curvature="0" />
      <path
         d="m 134.23801,195.78755 q 3.745,0 6.755,1.645 3.045,1.645 4.76,4.515 1.75,2.87 1.75,6.44 0,3.605 -1.75,6.51 -1.715,2.905 -4.76,4.585 -3.01,1.68 -6.755,1.68 -3.745,0 -6.79,-1.645 -3.01,-1.68 -4.76,-4.585 -1.715,-2.94 -1.715,-6.545 0,-3.57 1.715,-6.44 1.75,-2.87 4.76,-4.515 3.045,-1.645 6.79,-1.645 z m 0.07,5.425 q -1.82,0 -3.395,0.945 -1.54,0.945 -2.45,2.625 -0.91,1.645 -0.91,3.64 0,2.03 0.91,3.71 0.945,1.645 2.485,2.625 1.54,0.945 3.36,0.945 1.82,0 3.325,-0.945 1.54,-0.98 2.415,-2.625 0.875,-1.68 0.875,-3.71 0,-1.995 -0.875,-3.64 -0.875,-1.68 -2.415,-2.625 -1.505,-0.945 -3.325,-0.945 z"
         style="font-style:normal;font-variant:normal;font-weight:bold;font-stretch:normal;font-size:35px;line-height:125%;font-family:Montserrat;-inkscape-font-specification:'Montserrat, Bold';text-align:start;writing-mode:lr-tb;text-anchor:start"
         id="path4192"
         inkscape:connector-curvature="0" />
      <path
         d="m 165.44707,220.70755 -3.57,-6.79 -0.14,0 -4.62,0 0,6.79 -6.405,0 0,-24.535 11.025,0 q 4.865,0 7.525,2.275 2.695,2.24 2.695,6.335 0,2.765 -1.12,4.795 -1.12,1.995 -3.255,3.115 l 5.11,8.015 -7.245,0 z m -8.33,-11.9 4.655,0 q 1.96,0 3.01,-0.98 1.085,-0.98 1.085,-2.835 0,-1.785 -1.085,-2.73 -1.05,-0.98 -3.01,-0.98 l -4.655,0 0,7.525 z"
         style="font-style:normal;font-variant:normal;font-weight:bold;font-stretch:normal;font-size:35px;line-height:125%;font-family:Montserrat;-inkscape-font-specification:'Montserrat, Bold';text-align:start;writing-mode:lr-tb;text-anchor:start"
         id="path4194"
         inkscape:connector-curvature="0" />
      <path
         d="m 192.3134,208.17755 5.53,0 0,9.765 q -1.96,1.435 -4.83,2.345 -2.835,0.875 -5.39,0.875 -3.71,0 -6.72,-1.645 -2.975,-1.68 -4.69,-4.585 -1.715,-2.905 -1.715,-6.51 0,-3.57 1.75,-6.44 1.785,-2.905 4.865,-4.55 3.115,-1.645 6.93,-1.645 2.73,0 5.46,1.015 2.73,0.98 4.62,2.66 l -3.64,4.48 q -1.33,-1.26 -3.08,-1.995 -1.715,-0.735 -3.395,-0.735 -1.96,0 -3.535,0.945 -1.575,0.945 -2.485,2.59 -0.91,1.645 -0.91,3.675 0,2.065 0.91,3.745 0.91,1.645 2.52,2.59 1.61,0.945 3.57,0.945 1.855,0 4.235,-1.19 l 0,-6.335 z"
         style="font-style:normal;font-variant:normal;font-weight:bold;font-stretch:normal;font-size:35px;line-height:125%;font-family:Montserrat;-inkscape-font-specification:'Montserrat, Bold';text-align:start;writing-mode:lr-tb;text-anchor:start"
         id="path4196"
         inkscape:connector-curvature="0" />
      <path
         d="m 202.11832,196.17255 19.355,0 0,5.11 -12.95,0 0,4.585 11.69,0 0,5.075 -11.69,0.035 0,4.62 13.3,0 0,5.11 -19.705,0 0,-24.535 z"
         style="font-style:normal;font-variant:normal;font-weight:bold;font-stretch:normal;font-size:35px;line-height:125%;font-family:Montserrat;-inkscape-font-specification:'Montserrat, Bold';text-align:start;writing-mode:lr-tb;text-anchor:start"
         id="path4198"
         inkscape:connector-curvature="0" />
    </g>
  </g>
</svg>
